<?xml version="1.0" encoding="utf-8"?>
<!-- Generator: Adobe Illustrator 22.0.1, SVG Export Plug-In . SVG Version: 6.00 Build 0)  -->
<svg version="1.1" id="레이어_1" xmlns="http://www.w3.org/2000/svg" xmlns:xlink="http://www.w3.org/1999/xlink" x="0px"
	 y="0px" viewBox="0 0 106.5 85.5" style="enable-background:new 0 0 106.5 85.5;" xml:space="preserve">
<style type="text/css">
	.st0{fill:#FFFFFF;}
	.st1{fill:none;}
	.st2{fill:none;stroke:#FFFFFF;stroke-width:4;stroke-miterlimit:10;}
</style>
<g id="XMLID_41_">
	<g id="XMLID_48_">
		<path id="XMLID_49_" class="st0" d="M97.3,44.8H82.6c-1.1,0-2-0.9-2-2s0.9-2,2-2h14.7c1.1,0,2,0.9,2,2S98.4,44.8,97.3,44.8z"/>
	</g>
	<g id="XMLID_45_">
		<path id="XMLID_47_" class="st0" d="M77.4,30c-0.5,0-1-0.2-1.4-0.6c-0.8-0.8-0.8-2.1,0-2.9l10.4-10.4c0.8-0.8,2.1-0.8,2.9,0
			c0.8,0.8,0.8,2.1,0,2.9L78.9,29.4C78.5,29.8,77.9,30,77.4,30z"/>
	</g>
	<g id="XMLID_43_">
		<path id="XMLID_44_" class="st0" d="M87.8,69.9c-0.5,0-1-0.2-1.4-0.6L76,59c-0.8-0.8-0.8-2.1,0-2.9c0.8-0.8,2.1-0.8,2.9,0
			l10.4,10.4c0.8,0.8,0.8,2.1,0,2.9C88.8,69.7,88.3,69.9,87.8,69.9z"/>
	</g>
</g>
<g id="XMLID_76_">
	<path id="XMLID_84_" class="st1" d="M64.2,42.8c0-3.3-1.6-6.1-4.1-7.9v15.9C62.6,48.9,64.2,46,64.2,42.8z"/>
	<path id="XMLID_85_" class="st0" d="M60.2,30.2V12.5c0-1.7-1.3-3-3-3h-0.6L19.4,26.9h-8.7c-1.9,0-3.4,1.5-3.4,3.4v24.9
		c0,1.9,1.5,3.4,3.4,3.4h8.7l36.7,17.1l0.5,0.2h0.6c1.7,0,3-1.3,3-3V55.3c4.7-2.2,8.1-7,8.1-12.6C68.2,37.2,64.9,32.4,60.2,30.2z
		 M56.2,71.4L20.7,54.8l-0.1,0l-0.3-0.1h-9V30.9h9l0.3-0.1l0.1,0l35.5-16.6v14.9v4v19.3v4V71.4z M60.2,50.7V34.8
		c2.5,1.8,4.1,4.7,4.1,7.9C64.2,46,62.6,48.9,60.2,50.7z"/>
</g>
<line id="XMLID_75_" class="st2" x1="20.9" y1="28" x2="20.9" y2="55.9"/>
</svg>
