<?xml version="1.0" encoding="utf-8"?>
<!-- Generator: Adobe Illustrator 22.0.1, SVG Export Plug-In . SVG Version: 6.00 Build 0)  -->
<svg version="1.1" id="레이어_1" xmlns="http://www.w3.org/2000/svg" xmlns:xlink="http://www.w3.org/1999/xlink" x="0px"
	 y="0px" viewBox="0 0 86.3 87.9" style="enable-background:new 0 0 86.3 87.9;" xml:space="preserve">
<style type="text/css">
	.st0{fill:#FFFFFF;}
</style>
<g id="XMLID_3_">
	<g id="XMLID_6_">
		<path id="XMLID_7_" class="st0" d="M32.9,61.1c-6.6,0-13.2-2.5-18.3-7.6c-4.9-4.9-7.6-11.4-7.6-18.3c0-6.9,2.7-13.4,7.6-18.3
			C24.7,7,41.1,7,51.1,17.1c4.9,4.9,7.6,11.4,7.6,18.3c0,6.9-2.7,13.4-7.6,18.3C46.1,58.6,39.5,61.1,32.9,61.1z M32.9,14.5
			c-5.3,0-10.7,2-14.7,6.1c-3.9,3.9-6.1,9.2-6.1,14.7c0,5.6,2.2,10.8,6.1,14.7c8.1,8.1,21.3,8.1,29.4,0c3.9-3.9,6.1-9.2,6.1-14.7
			c0-5.6-2.2-10.8-6.1-14.7C43.6,16.5,38.2,14.5,32.9,14.5z"/>
	</g>
	<g id="XMLID_4_">
		<path id="XMLID_5_" class="st0" d="M76.7,81.6c-0.6,0-1.3-0.2-1.8-0.7L47.6,53.6c-1-1-1-2.6,0-3.5c1-1,2.6-1,3.5,0l27.3,27.3
			c1,1,1,2.6,0,3.5C78,81.4,77.3,81.6,76.7,81.6z"/>
	</g>
</g>
</svg>
