<?xml version="1.0" encoding="utf-8"?>
<!-- Generator: Adobe Illustrator 22.0.1, SVG Export Plug-In . SVG Version: 6.00 Build 0)  -->
<svg version="1.1" id="icons" xmlns="http://www.w3.org/2000/svg" xmlns:xlink="http://www.w3.org/1999/xlink" x="0px" y="0px"
	 viewBox="0 0 137 137" style="enable-background:new 0 0 137 137;" xml:space="preserve">
<style type="text/css">
	.st0{fill:#BBE4FF;}
	.st1{fill:#363F40;}
</style>
<g>
	<g>
		<circle class="st0" cx="85.7" cy="85.7" r="32.8"/>
	</g>
	<g>
		<g>
			<g>
				<g>
					<path class="st1" d="M104.4,118.5H38.8c-2.6,0-4.7-2.1-4.7-4.7V91.9c0-2.6,2.1-4.7,4.7-4.7h65.6c2.6,0,4.7,2.1,4.7,4.7v4.7h7.8
						c0.6,0,1.2,0.4,1.4,1c0.2,0.6,0.1,1.3-0.3,1.7l-8.9,8.9v5.6C109.1,116.4,107,118.5,104.4,118.5z M38.8,90.4
						c-0.9,0-1.6,0.7-1.6,1.6v21.9c0,0.9,0.7,1.6,1.6,1.6h65.6c0.9,0,1.6-0.7,1.6-1.6v-6.2c0-0.4,0.2-0.8,0.5-1.1l6.7-6.7h-5.6
						c-0.9,0-1.6-0.7-1.6-1.6v-6.2c0-0.9-0.7-1.6-1.6-1.6H38.8z"/>
				</g>
			</g>
			<g>
				<rect x="70.1" y="101.3" class="st1" width="3.1" height="3.1"/>
			</g>
			<g>
				<rect x="76.3" y="101.3" class="st1" width="3.1" height="3.1"/>
			</g>
			<g>
				<rect x="63.8" y="101.3" class="st1" width="3.1" height="3.1"/>
			</g>
		</g>
		<g>
			<g>
				<g>
					<path class="st1" d="M104.4,49.8H38.8c-2.6,0-4.7-2.1-4.7-4.7V23.2c0-2.6,2.1-4.7,4.7-4.7h65.6c2.6,0,4.7,2.1,4.7,4.7v4.7h7.8
						c0.6,0,1.2,0.4,1.4,1c0.2,0.6,0.1,1.3-0.3,1.7l-8.9,8.9v5.6C109.1,47.6,107,49.8,104.4,49.8z M38.8,21.6
						c-0.9,0-1.6,0.7-1.6,1.6v21.9c0,0.9,0.7,1.6,1.6,1.6h65.6c0.9,0,1.6-0.7,1.6-1.6v-6.2c0-0.4,0.2-0.8,0.5-1.1l6.7-6.7h-5.6
						c-0.9,0-1.6-0.7-1.6-1.6v-6.2c0-0.9-0.7-1.6-1.6-1.6H38.8z"/>
				</g>
			</g>
			<g>
				<rect x="43.5" y="29.4" class="st1" width="15.6" height="3.1"/>
			</g>
			<g>
				<rect x="62.2" y="29.4" class="st1" width="28.1" height="3.1"/>
			</g>
			<g>
				<rect x="43.5" y="35.7" class="st1" width="31.2" height="3.1"/>
			</g>
		</g>
		<g>
			<g>
				<g>
					<path class="st1" d="M98.2,84.1H32.6c-2.6,0-4.7-2.1-4.7-4.7v-5.6L19,64.9c-0.4-0.4-0.6-1.1-0.3-1.7c0.2-0.6,0.8-1,1.4-1h7.8
						v-4.7c0-2.6,2.1-4.7,4.7-4.7h65.6c2.6,0,4.7,2.1,4.7,4.7v21.9C102.9,82,100.8,84.1,98.2,84.1z M23.8,65.4l6.7,6.7
						c0.3,0.3,0.5,0.7,0.5,1.1v6.2c0,0.9,0.7,1.6,1.6,1.6h65.6c0.9,0,1.6-0.7,1.6-1.6V57.6c0-0.9-0.7-1.6-1.6-1.6H32.6
						c-0.9,0-1.6,0.7-1.6,1.6v6.2c0,0.9-0.7,1.6-1.6,1.6H23.8z"/>
				</g>
			</g>
			<g>
				<rect x="37.2" y="63.8" class="st1" width="32.8" height="3.1"/>
			</g>
			<g>
				<rect x="37.2" y="70.1" class="st1" width="17.2" height="3.1"/>
			</g>
			<g>
				<rect x="57.6" y="70.1" class="st1" width="28.1" height="3.1"/>
			</g>
		</g>
	</g>
</g>
</svg>
