<?xml version="1.0" encoding="utf-8"?>
<!-- Generator: Adobe Illustrator 22.0.1, SVG Export Plug-In . SVG Version: 6.00 Build 0)  -->
<svg version="1.1" id="icons" xmlns="http://www.w3.org/2000/svg" xmlns:xlink="http://www.w3.org/1999/xlink" x="0px" y="0px"
	 viewBox="0 0 137 137" style="enable-background:new 0 0 137 137;" xml:space="preserve">
<style type="text/css">
	.st0{fill:#BBE4FF;}
	.st1{fill:#363F40;}
</style>
<g>
	<g>
		<circle class="st0" cx="51.3" cy="51.3" r="32.8"/>
	</g>
	<g>
		<g>
			<polygon class="st1" points="106,62.3 102.9,62.3 102.9,33.2 91.3,21.6 34.1,21.6 34.1,62.3 31,62.3 31,18.5 92.6,18.5 106,31.9 
							"/>
		</g>
		<g>
			<g>
				<g>
					<path class="st1" d="M27.9,104.4h-3.1V100l-6.2-18.5c-0.1-0.3-0.1-0.7,0-1l4.8-14.1c0.1-0.3,0.4-0.6,0.7-0.8l7.7-4.7l1.6,2.7
						L26.2,68l-4.4,13l6.1,18.2c0.1,0.2,0.1,0.3,0.1,0.5V104.4z"/>
				</g>
				<g>
					<path class="st1" d="M46.6,106h-3.1V85.9l-3.1-14.2v-9.4c0-1.8-1.3-3.1-3-3.1c-1.8,0-3.3,1.4-3.3,3.1l0,12.7l-1.6,10.9
						l-3.1-0.4L31,74.6V62.3c0-3.4,2.9-6.2,6.4-6.2c3.4,0,6.1,2.7,6.1,6.2v9.2l3.1,14.2V106z"/>
				</g>
			</g>
			<g>
				<g>
					<path class="st1" d="M49.8,118.5h-3.1V106H24.8v12.5h-3.1v-14.1c0-0.9,0.7-1.6,1.6-1.6h25c0.9,0,1.6,0.7,1.6,1.6V118.5z"/>
				</g>
			</g>
			<g>
				<rect x="40.4" y="109.1" class="st1" width="3.1" height="3.1"/>
			</g>
		</g>
		<g>
			<g>
				<path class="st1" d="M112.2,104.4h-3.1v-4.7c0-0.2,0-0.3,0.1-0.5l6.1-18.2l-4.4-13l-7.2-4.4l1.6-2.7l7.7,4.7
					c0.3,0.2,0.5,0.5,0.7,0.8l4.8,14.1c0.1,0.3,0.1,0.7,0,1l-6.2,18.5V104.4z"/>
			</g>
			<g>
				<path class="st1" d="M93.5,104.4h-3.1l0-19.1l3.1-13.9v-9.2c0-3.5,2.7-6.2,6.1-6.2c3.5,0,6.4,2.9,6.4,6.2v12.4l1.5,10.8
					l-3.1,0.4l-1.6-11.2V62.3c0-1.7-1.5-3.1-3.3-3.1c-1.7,0-3,1.3-3,3.1l0,9.7l-3.1,13.9V104.4z"/>
			</g>
			<g>
				<rect x="93.5" y="109.1" class="st1" width="3.1" height="3.1"/>
			</g>
			<g>
				<path class="st1" d="M113.8,118.5h-3.1V106H90.4v12.5h-3.1V106c0-1.7,1.4-3.1,3.1-3.1h20.3c1.7,0,3.1,1.4,3.1,3.1V118.5z"/>
			</g>
		</g>
		<g>
			<polygon class="st1" points="104.4,34.1 90.4,34.1 90.4,20.1 93.5,20.1 93.5,31 104.4,31 			"/>
		</g>
		<g>
			<rect x="40.4" y="27.9" class="st1" width="3.1" height="3.1"/>
		</g>
		<g>
			<rect x="46.6" y="27.9" class="st1" width="3.1" height="3.1"/>
		</g>
		<g>
			<rect x="52.9" y="27.9" class="st1" width="3.1" height="3.1"/>
		</g>
		<g>
			<rect x="40.4" y="37.3" class="st1" width="43.7" height="3.1"/>
		</g>
		<g>
			<rect x="40.4" y="43.5" class="st1" width="56.2" height="3.1"/>
		</g>
		<g>
			<rect x="40.4" y="49.8" class="st1" width="56.2" height="3.1"/>
		</g>
		<g>
			<rect x="76.3" y="59.1" class="st1" width="3.1" height="34.4"/>
		</g>
		<g>
			<rect x="82.6" y="65.4" class="st1" width="3.1" height="28.1"/>
		</g>
		<g>
			<rect x="70.1" y="68.5" class="st1" width="3.1" height="25"/>
		</g>
		<g>
			<rect x="63.8" y="62.3" class="st1" width="3.1" height="31.2"/>
		</g>
		<g>
			<rect x="51.3" y="65.4" class="st1" width="3.1" height="28.1"/>
		</g>
		<g>
			<rect x="51.3" y="96.6" class="st1" width="3.1" height="3.1"/>
		</g>
		<g>
			<rect x="57.6" y="71.6" class="st1" width="3.1" height="21.9"/>
		</g>
		<g>
			<rect x="57.6" y="96.6" class="st1" width="3.1" height="3.1"/>
		</g>
		<g>
			<rect x="63.8" y="96.6" class="st1" width="3.1" height="3.1"/>
		</g>
		<g>
			<rect x="70.1" y="96.6" class="st1" width="3.1" height="3.1"/>
		</g>
		<g>
			<rect x="76.3" y="96.6" class="st1" width="3.1" height="3.1"/>
		</g>
		<g>
			<rect x="82.6" y="96.6" class="st1" width="3.1" height="3.1"/>
		</g>
	</g>
</g>
</svg>
