<?xml version="1.0" encoding="utf-8"?>
<!-- Generator: Adobe Illustrator 22.0.1, SVG Export Plug-In . SVG Version: 6.00 Build 0)  -->
<svg version="1.1" id="icons" xmlns="http://www.w3.org/2000/svg" xmlns:xlink="http://www.w3.org/1999/xlink" x="0px" y="0px"
	 viewBox="0 0 137 137" style="enable-background:new 0 0 137 137;" xml:space="preserve">
<style type="text/css">
	.st0{fill:#363F40;}
	.st1{fill:#BBE4FF;}
</style>
<g>
	<g>
		<g>
			<path class="st0" d="M45,77.9l-5.1-5.1l-5.1,5.1l-2.2-2.2l6.3-6.3c0.6-0.6,1.6-0.6,2.2,0l6.3,6.3L45,77.9z"/>
		</g>
	</g>
	<g>
		<circle class="st1" cx="86.7" cy="54.9" r="32.8"/>
	</g>
	<g>
		<g>
			<path class="st0" d="M102.4,72.1c-0.4,0-0.8-0.2-1.1-0.5L95,65.4l2.2-2.2l5.1,5.1l5.1-5.1l2.2,2.2l-6.3,6.3
				C103.2,72,102.8,72.1,102.4,72.1z"/>
		</g>
	</g>
	<g>
		<rect x="63.3" y="69" class="st0" width="3.1" height="3.1"/>
	</g>
	<g>
		<rect x="69.6" y="69" class="st0" width="3.1" height="3.1"/>
	</g>
	<g>
		<rect x="75.8" y="69" class="st0" width="3.1" height="3.1"/>
	</g>
	<g>
		<g>
			<path class="st0" d="M75.8,92.4h-3.1V83c0-0.9,0.7-1.6,1.6-1.6H93c0.9,0,1.6,0.7,1.6,1.6v3.1h-3.1v-1.6H75.8V92.4z"/>
		</g>
		<g>
			<path class="st0" d="M118,115.9H74.2c-0.9,0-1.6-0.7-1.6-1.6V92.4c0-0.9,0.7-1.6,1.6-1.6h11.9l5.8-5.8c0.3-0.3,0.7-0.5,1.1-0.5
				h25c0.9,0,1.6,0.7,1.6,1.6v28.1C119.6,115.2,118.9,115.9,118,115.9z M75.8,112.7h40.6v-25H93.6l-5.8,5.8
				c-0.3,0.3-0.7,0.5-1.1,0.5H75.8V112.7z"/>
		</g>
	</g>
	<g>
		<g>
			<path class="st0" d="M22.7,36.2h-3.1v-9.4c0-0.9,0.7-1.6,1.6-1.6h18.8c0.9,0,1.6,0.7,1.6,1.6v3.1h-3.1v-1.6H22.7V36.2z"/>
		</g>
		<g>
			<path class="st0" d="M64.9,59.6H21.1c-0.9,0-1.6-0.7-1.6-1.6V36.2c0-0.9,0.7-1.6,1.6-1.6H33l5.8-5.8c0.3-0.3,0.7-0.5,1.1-0.5h25
				c0.9,0,1.6,0.7,1.6,1.6V58C66.4,58.9,65.7,59.6,64.9,59.6z M22.7,56.5h40.6v-25H40.5l-5.8,5.8c-0.3,0.3-0.7,0.5-1.1,0.5H22.7
				V56.5z"/>
		</g>
	</g>
	<g>
		<path class="st0" d="M103.9,70.5h-3.1v-25c0-2.6-2.1-4.7-4.7-4.7H72.7v-3.1h23.4c4.3,0,7.8,3.5,7.8,7.8V70.5z"/>
	</g>
	<g>
		<path class="st0" d="M66.4,103.4H46.1c-4.3,0-7.8-3.5-7.8-7.8v-25h3.1v25c0,2.6,2.1,4.7,4.7,4.7h20.3V103.4z"/>
	</g>
</g>
</svg>
