<?xml version="1.0" encoding="utf-8"?>
<!-- Generator: Adobe Illustrator 22.0.1, SVG Export Plug-In . SVG Version: 6.00 Build 0)  -->
<svg version="1.1" id="icons" xmlns="http://www.w3.org/2000/svg" xmlns:xlink="http://www.w3.org/1999/xlink" x="0px" y="0px"
	 viewBox="0 0 137 137" style="enable-background:new 0 0 137 137;" xml:space="preserve">
<style type="text/css">
	.st0{fill:#BBE4FF;}
	.st1{fill:#363F40;}
</style>
<g>
	<g>
		<circle class="st0" cx="85.7" cy="51.3" r="32.8"/>
	</g>
	<g>
		<g>
			<polygon class="st1" points="110.7,34.1 96.6,34.1 96.6,20.1 99.8,20.1 99.8,31 110.7,31 			"/>
		</g>
		<g>
			<path class="st1" d="M110.7,106H91.9v-3.1h17.2V33.2L97.5,21.6H46.6v81.3h17.2v3.1H45.1c-0.9,0-1.6-0.7-1.6-1.6V20.1
				c0-0.9,0.7-1.6,1.6-1.6h53.1c0.4,0,0.8,0.2,1.1,0.5l12.5,12.5c0.3,0.3,0.5,0.7,0.5,1.1v71.9C112.3,105.3,111.6,106,110.7,106z"/>
		</g>
		<g>
			<g>
				<g>
					<path class="st1" d="M87.3,118.5c-0.4,0-0.7-0.1-1-0.4l-8.4-7l-8.4,7c-0.5,0.4-1.1,0.5-1.7,0.2c-0.5-0.3-0.9-0.8-0.9-1.4V98.2
						h3.1v15.4l6.8-5.7c0.6-0.5,1.4-0.5,2,0l6.8,5.7V98.2h3.1v18.8c0,0.6-0.4,1.2-0.9,1.4C87.7,118.5,87.5,118.5,87.3,118.5z"/>
				</g>
			</g>
			<g>
				<path class="st1" d="M77.9,99.8c-2.6,0-5-1.7-5.9-4.1c-0.9-0.3-1.8-0.7-2.7-1.1c-0.8,0.3-1.6,0.5-2.4,0.5
					c-3.4,0-6.3-2.8-6.3-6.3c0-0.8,0.2-1.6,0.5-2.4c-0.4-0.9-0.8-1.7-1.1-2.7c-2.4-0.9-4.1-3.2-4.1-5.9s1.7-5,4.1-5.9
					c0.3-0.9,0.7-1.8,1.1-2.7c-0.3-0.8-0.5-1.6-0.5-2.4c0-3.4,2.8-6.3,6.3-6.3c0.8,0,1.6,0.2,2.4,0.5c0.9-0.4,1.7-0.8,2.7-1.1
					c0.9-2.4,3.2-4.1,5.9-4.1c2.6,0,5,1.7,5.9,4.1c0.9,0.3,1.8,0.7,2.7,1.1c0.8-0.3,1.6-0.5,2.4-0.5c3.4,0,6.3,2.8,6.3,6.3
					c0,0.8-0.2,1.6-0.5,2.4c0.4,0.9,0.8,1.7,1.1,2.7c2.4,0.9,4.1,3.2,4.1,5.9s-1.7,5-4.1,5.9c-0.3,0.9-0.7,1.8-1.1,2.7
					c0.3,0.8,0.5,1.6,0.5,2.4c0,3.4-2.8,6.3-6.3,6.3c-0.8,0-1.6-0.2-2.4-0.5c-0.9,0.4-1.7,0.8-2.7,1.1
					C82.8,98.1,80.5,99.8,77.9,99.8z M69.3,91l0.8,0.5c1.1,0.6,2.3,1.1,3.5,1.5l0.9,0.3l0.2,0.9c0.3,1.5,1.6,2.5,3.1,2.5
					c1.5,0,2.8-1.1,3.1-2.5l0.2-0.9l0.9-0.3c1.2-0.3,2.4-0.8,3.5-1.5l0.8-0.5l0.8,0.5c0.5,0.3,1.1,0.5,1.6,0.5
					c1.7,0,3.1-1.4,3.1-3.1c0-0.6-0.2-1.1-0.5-1.6L91,86.4l0.5-0.8c0.6-1.1,1.1-2.3,1.5-3.5l0.3-0.9l0.9-0.2
					c1.5-0.3,2.5-1.6,2.5-3.1s-1.1-2.8-2.5-3.1l-0.9-0.2l-0.3-0.9c-0.3-1.2-0.8-2.4-1.5-3.5L91,69.3l0.5-0.8
					c0.3-0.5,0.5-1.1,0.5-1.6c0-1.7-1.4-3.1-3.1-3.1c-0.6,0-1.1,0.2-1.6,0.5l-0.8,0.5l-0.8-0.5c-1.1-0.6-2.3-1.1-3.5-1.5l-0.9-0.3
					l-0.2-0.9c-0.3-1.5-1.6-2.5-3.1-2.5c-1.5,0-2.8,1.1-3.1,2.5l-0.2,0.9l-0.9,0.3c-1.2,0.3-2.4,0.8-3.5,1.5l-0.8,0.5l-0.8-0.5
					c-0.5-0.3-1.1-0.5-1.6-0.5c-1.7,0-3.1,1.4-3.1,3.1c0,0.6,0.2,1.1,0.5,1.6l0.5,0.8l-0.5,0.8c-0.6,1.1-1.1,2.3-1.5,3.5l-0.3,0.9
					l-0.9,0.2c-1.5,0.3-2.5,1.6-2.5,3.1s1.1,2.8,2.5,3.1l0.9,0.2l0.3,0.9c0.3,1.2,0.8,2.4,1.5,3.5l0.5,0.8l-0.5,0.8
					c-0.3,0.5-0.5,1.1-0.5,1.6c0,1.7,1.4,3.1,3.1,3.1c0.6,0,1.1-0.2,1.6-0.5L69.3,91z"/>
			</g>
			<g>
				<path class="st1" d="M77.9,88.8c-6,0-10.9-4.9-10.9-10.9s4.9-10.9,10.9-10.9c6,0,10.9,4.9,10.9,10.9S83.9,88.8,77.9,88.8z
					 M77.9,70.1c-4.3,0-7.8,3.5-7.8,7.8s3.5,7.8,7.8,7.8c4.3,0,7.8-3.5,7.8-7.8S82.2,70.1,77.9,70.1z"/>
			</g>
		</g>
		<g>
			<rect x="26.3" y="102.9" class="st1" width="9.4" height="3.1"/>
		</g>
		<g>
			<rect x="26.3" y="77.9" class="st1" width="9.4" height="3.1"/>
		</g>
		<g>
			<rect x="26.3" y="26.3" class="st1" width="9.4" height="3.1"/>
		</g>
		<g>
			<path class="st1" d="M31,118.5c-0.5,0-1.1-0.3-1.3-0.8l-4.7-7.8c-0.1-0.2-0.2-0.5-0.2-0.8V24.8c0-3.4,2.8-6.3,6.3-6.3
				c3.4,0,6.3,2.8,6.3,6.3v84.4c0,0.3-0.1,0.6-0.2,0.8l-4.7,7.8C32.1,118.2,31.5,118.5,31,118.5z M27.9,108.7l3.1,5.2l3.1-5.2V24.8
				c0-1.7-1.4-3.1-3.1-3.1s-3.1,1.4-3.1,3.1V108.7z"/>
		</g>
		<g>
			<rect x="52.9" y="26.3" class="st1" width="18.8" height="3.1"/>
		</g>
		<g>
			<rect x="52.9" y="37.3" class="st1" width="50" height="3.1"/>
		</g>
		<g>
			<rect x="52.9" y="43.5" class="st1" width="50" height="3.1"/>
		</g>
		<g>
			<rect x="52.9" y="49.8" class="st1" width="50" height="3.1"/>
		</g>
		<g>
			<path class="st1" d="M21.6,63.8h-3.1V34.1c0-0.9,0.7-1.6,1.6-1.6h15.6v3.1H21.6V63.8z"/>
		</g>
	</g>
</g>
</svg>
