<?xml version="1.0" encoding="utf-8"?>
<!-- Generator: Adobe Illustrator 22.0.1, SVG Export Plug-In . SVG Version: 6.00 Build 0)  -->
<svg version="1.1" id="icons" xmlns="http://www.w3.org/2000/svg" xmlns:xlink="http://www.w3.org/1999/xlink" x="0px" y="0px"
	 viewBox="0 0 137 137" style="enable-background:new 0 0 137 137;" xml:space="preserve">
<style type="text/css">
	.st0{fill:#BBE4FF;}
	.st1{fill:#363F40;}
</style>
<g>
	<g>
		<circle class="st0" cx="89.6" cy="52.8" r="32.8"/>
	</g>
	<g>
		<g>
			<path class="st1" d="M45.8,76.3c-0.4,0-0.8-0.2-1.1-0.5l-12-12h-8.7c-0.9,0-1.6-0.7-1.6-1.6V21.6c0-0.9,0.7-1.6,1.6-1.6h59.4
				c0.9,0,1.6,0.7,1.6,1.6v40.6c0,0.9-0.7,1.6-1.6,1.6h-4.7v-3.1h3.1V23.1H25.5v37.5h7.8c0.4,0,0.8,0.2,1.1,0.5l9.8,9.8v-8.7
				c0-0.9,0.7-1.6,1.6-1.6h12.5v3.1H47.4v10.9c0,0.6-0.4,1.2-1,1.4C46.2,76.2,46,76.3,45.8,76.3z"/>
		</g>
		<g>
			<g>
				<path class="st1" d="M47.4,120H23.9c-0.9,0-1.6-0.7-1.6-1.6V80.9c0-0.9,0.7-1.6,1.6-1.6h23.4c0.9,0,1.6,0.7,1.6,1.6v37.5
					C48.9,119.3,48.2,120,47.4,120z M25.5,116.9h20.3V82.5H25.5V116.9z"/>
			</g>
			<g>
				<path class="st1" d="M84.9,120H58.3c-0.2,0-0.5-0.1-0.7-0.2l-6.3-3.1l1.4-2.8l5.9,3h26.2c1.7,0,3.1-1.4,3.1-3.1
					s-1.4-3.1-3.1-3.1c-0.9,0-1.6-0.7-1.6-1.6s0.7-1.6,1.6-1.6h1.6c1.7,0,3.1-1.4,3.1-3.1s-1.4-3.1-3.1-3.1c-0.9,0-1.6-0.7-1.6-1.6
					s0.7-1.6,1.6-1.6h3.1c1.7,0,3.1-1.4,3.1-3.1s-1.4-3.1-3.1-3.1H88c-0.9,0-1.6-0.7-1.6-1.6s0.7-1.6,1.6-1.6c1.7,0,3.1-1.4,3.1-3.1
					s-1.4-3.1-3.1-3.1H67.7c-0.5,0-1-0.2-1.3-0.7c-0.3-0.4-0.4-1-0.2-1.4l6.2-16.9v-2.8c0-1.7-1.4-3.1-3.1-3.1
					c-1.7,0-3.1,1.4-3.1,3.1c0,0.2-0.1,0.5-0.2,0.7l-4.7,9.4c-0.1,0.1-0.1,0.2-0.2,0.3L51.7,82c-0.3,0.3-0.7,0.5-1.2,0.5h-3.1v-3.1
					h2.4l8.8-10.2l4.4-8.9c0.2-3.3,2.9-5.9,6.2-5.9c3.4,0,6.3,2.8,6.3,6.3v3.1c0,0.2,0,0.4-0.1,0.5l-5.5,15.1H88
					c3.4,0,6.3,2.8,6.3,6.3c0,1.5-0.6,2.9-1.5,4c1.8,1.1,3,3.1,3,5.4c0,2.7-1.8,5-4.2,5.9c0.7,1,1.1,2.2,1.1,3.5
					c0,2.3-1.2,4.3-3,5.4c0.9,1.1,1.5,2.5,1.5,4C91.1,117.2,88.3,120,84.9,120z"/>
			</g>
			<g>
				<rect x="39.6" y="110.6" class="st1" width="3.1" height="3.1"/>
			</g>
		</g>
		<g>
			<path class="st1" d="M98.9,85.6c-0.2,0-0.4,0-0.6-0.1c-0.6-0.2-1-0.8-1-1.4V73.1H78.6V70h20.3c0.9,0,1.6,0.7,1.6,1.6v8.7l9.8-9.8
				c0.3-0.3,0.7-0.5,1.1-0.5h7.8V35.6H88v-3.1h32.8c0.9,0,1.6,0.7,1.6,1.6v37.5c0,0.9-0.7,1.6-1.6,1.6h-8.7l-12,12
				C99.7,85.5,99.3,85.6,98.9,85.6z"/>
		</g>
		<g>
			<g>
				<rect x="45.8" y="40.3" class="st1" width="3.1" height="3.1"/>
			</g>
			<g>
				<rect x="52.1" y="40.3" class="st1" width="3.1" height="3.1"/>
			</g>
			<g>
				<rect x="58.3" y="40.3" class="st1" width="3.1" height="3.1"/>
			</g>
		</g>
		<g>
			<rect x="88" y="41.9" class="st1" width="25" height="3.1"/>
		</g>
		<g>
			<rect x="88" y="51.3" class="st1" width="25" height="3.1"/>
		</g>
		<g>
			<rect x="88" y="60.6" class="st1" width="25" height="3.1"/>
		</g>
		<g>
			<path class="st1" d="M73.9,51.3H33.3c-0.9,0-1.6-0.7-1.6-1.6V34.1c0-0.9,0.7-1.6,1.6-1.6h40.6c0.9,0,1.6,0.7,1.6,1.6v15.6
				C75.5,50.6,74.8,51.3,73.9,51.3z M34.9,48.1h37.5V35.6H34.9V48.1z"/>
		</g>
	</g>
</g>
</svg>
