<?xml version="1.0" encoding="utf-8"?>
<!-- Generator: Adobe Illustrator 22.0.1, SVG Export Plug-In . SVG Version: 6.00 Build 0)  -->
<svg version="1.1" id="레이어_1" xmlns="http://www.w3.org/2000/svg" xmlns:xlink="http://www.w3.org/1999/xlink" x="0px"
	 y="0px" viewBox="0 0 41.6 42.4" style="enable-background:new 0 0 41.6 42.4;" xml:space="preserve">
<style type="text/css">
	.st0{fill:#1B64BC;}
	.st1{fill:#FFFFFF;}
	.st2{fill:#333333;}
	.st3{fill:#999999;}
</style>
<g>
	<rect class="st0" width="41.6" height="42.4"/>
	<path class="st1" d="M18.4,20V8.8l8.8,5.6L18.4,20z M18.4,20"/>
	<rect y="28" class="st2" width="41.6" height="14.4"/>
	<path class="st3" d="M36.8,36h-24c-0.4,0-0.8-0.4-0.8-0.8c0-0.4,0.4-0.8,0.8-0.8h24c0.4,0,0.8,0.4,0.8,0.8
		C37.6,35.6,37.2,36,36.8,36L36.8,36z M36.8,36"/>
	<path class="st1" d="M4.8,38.4C4.4,38.4,4,38,4,37.6v-4.8C4,32.4,4.4,32,4.8,32c0.4,0,0.8,0.4,0.8,0.8v4.8
		C5.6,38,5.2,38.4,4.8,38.4L4.8,38.4z M4.8,38.4"/>
	<path class="st1" d="M8,38.4c-0.4,0-0.8-0.4-0.8-0.8v-4.8C7.2,32.4,7.6,32,8,32c0.4,0,0.8,0.4,0.8,0.8v4.8C8.8,38,8.4,38.4,8,38.4
		L8,38.4z M8,38.4"/>
	<path class="st0" d="M16.8,34.4h-4c-0.4,0-0.8,0.4-0.8,0.8c0,0.4,0.4,0.8,0.8,0.8h4V34.4z M16.8,34.4"/>
	<path class="st1" d="M16.8,38.4c-0.4,0-0.8-0.4-0.8-0.8v-4.8c0-0.4,0.4-0.8,0.8-0.8c0.4,0,0.8,0.4,0.8,0.8v4.8
		C17.6,38,17.2,38.4,16.8,38.4L16.8,38.4z M16.8,38.4"/>
</g>
</svg>
