<?xml version="1.0" encoding="utf-8"?>
<!-- Generator: Adobe Illustrator 22.0.1, SVG Export Plug-In . SVG Version: 6.00 Build 0)  -->
<svg version="1.1" id="레이어_1" xmlns="http://www.w3.org/2000/svg" xmlns:xlink="http://www.w3.org/1999/xlink" x="0px"
	 y="0px" viewBox="0 0 87.8 85.5" style="enable-background:new 0 0 87.8 85.5;" xml:space="preserve">
<style type="text/css">
	.st0{fill:#FFFFFF;}
	.st1{fill:none;stroke:#FFFFFF;stroke-width:4;stroke-miterlimit:10;}
</style>
<path id="XMLID_12_" class="st0" d="M80.5,76.6H7.7V73h72.8V76.6z M22.4,65.9H7.2V50.8l36.2-36.3v0l2.6-2.6l0,0l5.3-5.3
	c2.1-1.9,5.3-1.9,7.3-0.1l7.9,7.9c1,1.1,1.5,2.3,1.5,3.7c0,1.4-0.5,2.6-1.4,3.6l-5.4,5.4v0l-2.6,2.6l0,0L22.4,65.9z M10.9,62.3h10
	l35.2-35.2L46,17L10.9,52.3V62.3z M48.6,14.5l10.1,10.1l5.3-5.3c0.3-0.3,0.4-0.6,0.4-1.1c0-0.5-0.1-0.8-0.4-1.2l-7.8-7.8
	c-0.6-0.5-1.6-0.6-2.3,0.1L48.6,14.5z"/>
<polyline id="XMLID_54_" class="st1" points="45,13.2 41.9,10.2 29.7,22.3 "/>
</svg>
